  0
SECTION
  2
HEADER
  9
$ACADVER
  1
AC1009
  9
$INSUNITS
 70
4
  9
$EXTMIN
 10
-172.641450
 20
-149.532564
 30
0.0
  9
$EXTMAX
 10
175.961470
 20
156.717436
 30
0.0
  0
ENDSEC
  0
SECTION
  2
TABLES
  0
TABLE
  2
LAYER
 70
2
  0
LAYER
  2
0
 70
0
 62
7
  6
CONTINUOUS
  0
LAYER
  2
CUT
 70
0
 62
1
  6
CONTINUOUS
  0
ENDTAB
  0
ENDSEC
  0
SECTION
  2
ENTITIES
  0
POLYLINE
  8
CUT
 66
1
 70
1
  0
VERTEX
  8
CUT
 10
-172.641450
 20
-0.758764
 30
0.000000
  0
VERTEX
  8
CUT
 10
-89.419238
 20
-144.901069
 30
0.000000
  0
VERTEX
  8
CUT
 10
-81.729071
 20
-149.532564
 30
0.000000
  0
VERTEX
  8
CUT
 10
85.053837
 20
-149.532411
 30
0.000000
  0
VERTEX
  8
CUT
 10
92.741248
 20
-144.899921
 30
0.000000
  0
VERTEX
  8
CUT
 10
175.961470
 20
-0.758688
 30
0.000000
  0
VERTEX
  8
CUT
 10
175.952481
 20
8.335055
 30
0.000000
  0
VERTEX
  8
CUT
 10
92.575567
 20
152.371672
 30
0.000000
  0
VERTEX
  8
CUT
 10
84.717115
 20
156.717436
 30
0.000000
  0
VERTEX
  8
CUT
 10
-81.397019
 20
156.717436
 30
0.000000
  0
VERTEX
  8
CUT
 10
-89.257691
 20
152.368150
 30
0.000000
  0
VERTEX
  8
CUT
 10
-172.478679
 20
8.225462
 30
0.000000
  0
SEQEND
  8
CUT
  0
POLYLINE
  8
CUT
 66
1
 70
1
  0
VERTEX
  8
CUT
 10
67.163537
 20
-98.122981
 30
0.000000
  0
VERTEX
  8
CUT
 10
58.528746
 20
-103.166828
 30
0.000000
  0
VERTEX
  8
CUT
 10
-53.717295
 20
-103.735974
 30
0.000000
  0
VERTEX
  8
CUT
 10
-62.402790
 20
-98.779949
 30
0.000000
  0
VERTEX
  8
CUT
 10
-119.018705
 20
-1.856599
 30
0.000000
  0
VERTEX
  8
CUT
 10
-119.069410
 20
8.143272
 30
0.000000
  0
VERTEX
  8
CUT
 10
-63.439284
 20
105.635768
 30
0.000000
  0
VERTEX
  8
CUT
 10
-54.804493
 20
110.679615
 30
0.000000
  0
VERTEX
  8
CUT
 10
57.441548
 20
111.248761
 30
0.000000
  0
VERTEX
  8
CUT
 10
66.127043
 20
106.292737
 30
0.000000
  0
VERTEX
  8
CUT
 10
122.742958
 20
9.369386
 30
0.000000
  0
VERTEX
  8
CUT
 10
122.793663
 20
-0.630485
 30
0.000000
  0
SEQEND
  8
CUT
  0
POLYLINE
  8
CUT
 66
1
 70
1
  0
VERTEX
  8
CUT
 10
-157.579386
 20
17.422686
 30
0.000000
  0
VERTEX
  8
CUT
 10
-143.620511
 20
17.422686
 30
0.000000
  0
VERTEX
  8
CUT
 10
-143.620665
 20
-10.237814
 30
0.000000
  0
VERTEX
  8
CUT
 10
-157.579463
 20
-10.237776
 30
0.000000
  0
SEQEND
  8
CUT
  0
POLYLINE
  8
CUT
 66
1
 70
1
  0
VERTEX
  8
CUT
 10
86.277535
 20
122.493768
 30
0.000000
  0
VERTEX
  8
CUT
 10
62.322904
 20
136.324010
 30
0.000000
  0
VERTEX
  8
CUT
 10
69.302328
 20
148.412701
 30
0.000000
  0
VERTEX
  8
CUT
 10
93.256896
 20
134.582451
 30
0.000000
  0
SEQEND
  8
CUT
  0
POLYLINE
  8
CUT
 66
1
 70
1
  0
VERTEX
  8
CUT
 10
62.322787
 20
-129.139392
 30
0.000000
  0
VERTEX
  8
CUT
 10
86.277535
 20
-115.309127
 30
0.000000
  0
VERTEX
  8
CUT
 10
93.256896
 20
-127.397810
 30
0.000000
  0
VERTEX
  8
CUT
 10
69.302175
 20
-141.228060
 30
0.000000
  0
SEQEND
  8
CUT
  0
ENDSEC
  0
EOF
