  0
SECTION
  2
HEADER
  9
$ACADVER
  1
AC1009
  9
$INSUNITS
 70
4
  9
$EXTMIN
 10
-174.321405
 20
-153.142456
 30
0.0
  9
$EXTMAX
 10
174.321405
 20
153.142456
 30
0.0
  0
ENDSEC
  0
SECTION
  2
TABLES
  0
TABLE
  2
LAYER
 70
2
  0
LAYER
  2
0
 70
0
 62
7
  6
CONTINUOUS
  0
LAYER
  2
CUT
 70
0
 62
1
  6
CONTINUOUS
  0
ENDTAB
  0
ENDSEC
  0
SECTION
  2
ENTITIES
  0
POLYLINE
  8
CUT
 66
1
 70
1
  0
VERTEX
  8
CUT
 10
5.547208
 20
-9.999737
 30
0.000000
  0
VERTEX
  8
CUT
 10
0.366268
 20
-7.397016
 30
0.000000
  0
VERTEX
  8
CUT
 10
7.297985
 20
-3.301029
 30
0.000000
  0
VERTEX
  8
CUT
 10
9.598167
 20
-7.517517
 30
0.000000
  0
SEQEND
  8
CUT
  0
POLYLINE
  8
CUT
 66
1
 70
1
  0
VERTEX
  8
CUT
 10
12.631739
 20
-7.137577
 30
0.000000
  0
VERTEX
  8
CUT
 10
12.626446
 20
-3.910926
 30
0.000000
  0
VERTEX
  8
CUT
 10
52.159615
 20
-4.100180
 30
0.000000
  0
VERTEX
  8
CUT
 10
49.422639
 20
-7.060522
 30
0.000000
  0
SEQEND
  8
CUT
  0
POLYLINE
  8
CUT
 66
1
 70
1
  0
VERTEX
  8
CUT
 10
-7.796522
 20
-10.027684
 30
0.000000
  0
VERTEX
  8
CUT
 10
-11.492564
 20
-7.706040
 30
0.000000
  0
VERTEX
  8
CUT
 10
-9.708059
 20
-3.336643
 30
0.000000
  0
VERTEX
  8
CUT
 10
-2.315074
 20
-7.402629
 30
0.000000
  0
SEQEND
  8
CUT
  0
POLYLINE
  8
CUT
 66
1
 70
1
  0
VERTEX
  8
CUT
 10
24.629229
 20
-24.344109
 30
0.000000
  0
VERTEX
  8
CUT
 10
23.758220
 20
-19.601050
 30
0.000000
  0
VERTEX
  8
CUT
 10
18.961842
 20
-24.992816
 30
0.000000
  0
VERTEX
  8
CUT
 10
23.078474
 20
-29.092241
 30
0.000000
  0
VERTEX
  8
CUT
 10
25.245477
 20
-31.086740
 30
0.000000
  0
VERTEX
  8
CUT
 10
23.087191
 20
-33.254086
 30
0.000000
  0
VERTEX
  8
CUT
 10
17.244809
 20
-27.436125
 30
0.000000
  0
VERTEX
  8
CUT
 10
4.372177
 20
-42.781150
 30
0.000000
  0
VERTEX
  8
CUT
 10
2.295611
 20
-40.709091
 30
0.000000
  0
VERTEX
  8
CUT
 10
10.865216
 20
-30.642641
 30
0.000000
  0
VERTEX
  8
CUT
 10
-1.604540
 20
-38.203166
 30
0.000000
  0
VERTEX
  8
CUT
 10
-12.240202
 20
-30.691033
 30
0.000000
  0
VERTEX
  8
CUT
 10
-0.945512
 20
-44.516338
 30
0.000000
  0
VERTEX
  8
CUT
 10
1.158733
 20
-46.611786
 30
0.000000
  0
VERTEX
  8
CUT
 10
-0.935893
 20
-49.108719
 30
0.000000
  0
VERTEX
  8
CUT
 10
-19.386607
 20
-27.512846
 30
0.000000
  0
VERTEX
  8
CUT
 10
-21.042104
 20
-25.076600
 30
0.000000
  0
VERTEX
  8
CUT
 10
-26.435072
 20
-19.706175
 30
0.000000
  0
VERTEX
  8
CUT
 10
-26.425754
 20
-24.155044
 30
0.000000
  0
VERTEX
  8
CUT
 10
-34.436538
 20
-19.400030
 30
0.000000
  0
VERTEX
  8
CUT
 10
-22.823679
 20
-30.964346
 30
0.000000
  0
VERTEX
  8
CUT
 10
-24.864441
 20
-33.013674
 30
0.000000
  0
VERTEX
  8
CUT
 10
-48.377782
 20
-9.598619
 30
0.000000
  0
VERTEX
  8
CUT
 10
-12.284536
 20
-9.523026
 30
0.000000
  0
VERTEX
  8
CUT
 10
-7.471928
 20
-11.880903
 30
0.000000
  0
VERTEX
  8
CUT
 10
-6.686825
 20
-26.820618
 30
0.000000
  0
VERTEX
  8
CUT
 10
-5.463435
 20
-23.645076
 30
0.000000
  0
VERTEX
  8
CUT
 10
-3.449717
 20
-27.466242
 30
0.000000
  0
VERTEX
  8
CUT
 10
-0.563357
 20
-36.203050
 30
0.000000
  0
VERTEX
  8
CUT
 10
1.602235
 20
-29.806479
 30
0.000000
  0
VERTEX
  8
CUT
 10
3.440978
 20
-22.285945
 30
0.000000
  0
VERTEX
  8
CUT
 10
5.350750
 20
-26.542525
 30
0.000000
  0
VERTEX
  8
CUT
 10
5.874680
 20
-11.852950
 30
0.000000
  0
VERTEX
  8
CUT
 10
10.820882
 20
-9.474634
 30
0.000000
  0
VERTEX
  8
CUT
 10
46.842372
 20
-9.399190
 30
0.000000
  0
VERTEX
  8
CUT
 10
28.773598
 20
-27.543809
 30
0.000000
  0
VERTEX
  8
CUT
 10
26.688317
 20
-25.467245
 30
0.000000
  0
VERTEX
  8
CUT
 10
32.548324
 20
-19.582640
 30
0.000000
  0
SEQEND
  8
CUT
  0
POLYLINE
  8
CUT
 66
1
 70
1
  0
VERTEX
  8
CUT
 10
1.573365
 20
-16.021813
 30
0.000000
  0
VERTEX
  8
CUT
 10
0.014621
 20
-20.497549
 30
0.000000
  0
VERTEX
  8
CUT
 10
-0.196676
 20
-24.827958
 30
0.000000
  0
VERTEX
  8
CUT
 10
-2.288309
 20
-20.182739
 30
0.000000
  0
VERTEX
  8
CUT
 10
-3.338845
 20
-15.027673
 30
0.000000
  0
VERTEX
  8
CUT
 10
-5.194048
 20
-19.213630
 30
0.000000
  0
VERTEX
  8
CUT
 10
-1.143753
 20
-8.613002
 30
0.000000
  0
VERTEX
  8
CUT
 10
3.279992
 20
-18.233708
 30
0.000000
  0
SEQEND
  8
CUT
  0
POLYLINE
  8
CUT
 66
1
 70
1
  0
VERTEX
  8
CUT
 10
-51.037772
 20
-7.207599
 30
0.000000
  0
VERTEX
  8
CUT
 10
-53.986259
 20
-4.113767
 30
0.000000
  0
VERTEX
  8
CUT
 10
-14.448727
 20
-4.030960
 30
0.000000
  0
VERTEX
  8
CUT
 10
-14.442234
 20
-7.130953
 30
0.000000
  0
SEQEND
  8
CUT
  0
POLYLINE
  8
CUT
 66
1
 70
1
  0
VERTEX
  8
CUT
 10
99.987412
 20
29.687161
 30
0.000000
  0
VERTEX
  8
CUT
 10
163.061487
 20
-23.856420
 30
0.000000
  0
VERTEX
  8
CUT
 10
174.159781
 20
-4.640836
 30
0.000000
  0
VERTEX
  8
CUT
 10
174.321405
 20
4.353573
 30
0.000000
  0
VERTEX
  8
CUT
 10
91.092608
 20
148.509430
 30
0.000000
  0
VERTEX
  8
CUT
 10
83.399838
 20
153.142456
 30
0.000000
  0
VERTEX
  8
CUT
 10
48.788075
 20
153.142456
 30
0.000000
  0
VERTEX
  8
CUT
 10
0.001072
 20
110.702025
 30
0.000000
  0
VERTEX
  8
CUT
 10
-48.785618
 20
153.142456
 30
0.000000
  0
VERTEX
  8
CUT
 10
-83.397387
 20
153.142456
 30
0.000000
  0
VERTEX
  8
CUT
 10
-91.090311
 20
148.509277
 30
0.000000
  0
VERTEX
  8
CUT
 10
-174.321405
 20
4.349362
 30
0.000000
  0
VERTEX
  8
CUT
 10
-174.157408
 20
-4.640606
 30
0.000000
  0
VERTEX
  8
CUT
 10
-163.059025
 20
-23.856256
 30
0.000000
  0
VERTEX
  8
CUT
 10
-99.975708
 20
29.695356
 30
0.000000
  0
VERTEX
  8
CUT
 10
-97.685761
 20
27.048443
 30
0.000000
  0
VERTEX
  8
CUT
 10
-160.257256
 20
-28.708794
 30
0.000000
  0
VERTEX
  8
CUT
 10
-90.003437
 20
-150.344085
 30
0.000000
  0
VERTEX
  8
CUT
 10
-83.065336
 20
-153.142456
 30
0.000000
  0
VERTEX
  8
CUT
 10
83.067786
 20
-153.142456
 30
0.000000
  0
VERTEX
  8
CUT
 10
90.925242
 20
-148.799219
 30
0.000000
  0
VERTEX
  8
CUT
 10
160.259706
 20
-28.708947
 30
0.000000
  0
VERTEX
  8
CUT
 10
97.690263
 20
27.046497
 30
0.000000
  0
SEQEND
  8
CUT
  0
POLYLINE
  8
CUT
 66
1
 70
1
  0
VERTEX
  8
CUT
 10
-6.384930
 20
-120.296072
 30
0.000000
  0
VERTEX
  8
CUT
 10
6.387303
 20
-120.296072
 30
0.000000
  0
VERTEX
  8
CUT
 10
13.833083
 20
-112.850522
 30
0.000000
  0
VERTEX
  8
CUT
 10
41.766758
 20
-112.850522
 30
0.000000
  0
VERTEX
  8
CUT
 10
41.766758
 20
-134.722361
 30
0.000000
  0
VERTEX
  8
CUT
 10
-41.764155
 20
-134.722361
 30
0.000000
  0
VERTEX
  8
CUT
 10
-41.764155
 20
-112.850522
 30
0.000000
  0
VERTEX
  8
CUT
 10
-13.901350
 20
-112.850522
 30
0.000000
  0
SEQEND
  8
CUT
  0
ENDSEC
  0
EOF
