  0
SECTION
  2
HEADER
  9
$ACADVER
  1
AC1009
  9
$INSUNITS
 70
4
  9
$EXTMIN
 10
-174.283683
 20
-153.159323
 30
0.0
  9
$EXTMAX
 10
174.283683
 20
153.159323
 30
0.0
  0
ENDSEC
  0
SECTION
  2
TABLES
  0
TABLE
  2
LAYER
 70
2
  0
LAYER
  2
0
 70
0
 62
7
  6
CONTINUOUS
  0
LAYER
  2
CUT
 70
0
 62
1
  6
CONTINUOUS
  0
ENDTAB
  0
ENDSEC
  0
SECTION
  2
ENTITIES
  0
POLYLINE
  8
CUT
 66
1
 70
1
  0
VERTEX
  8
CUT
 10
-12.912896
 20
-3.779040
 30
0.000000
  0
VERTEX
  8
CUT
 10
-12.918189
 20
-7.005692
 30
0.000000
  0
VERTEX
  8
CUT
 10
-49.709089
 20
-6.928637
 30
0.000000
  0
VERTEX
  8
CUT
 10
-52.446065
 20
-3.968294
 30
0.000000
  0
SEQEND
  8
CUT
  0
POLYLINE
  8
CUT
 66
1
 70
1
  0
VERTEX
  8
CUT
 10
-0.301071
 20
-20.365663
 30
0.000000
  0
VERTEX
  8
CUT
 10
-1.859815
 20
-15.889927
 30
0.000000
  0
VERTEX
  8
CUT
 10
-3.566442
 20
-18.101823
 30
0.000000
  0
VERTEX
  8
CUT
 10
0.857302
 20
-8.481116
 30
0.000000
  0
VERTEX
  8
CUT
 10
4.907598
 20
-19.081744
 30
0.000000
  0
VERTEX
  8
CUT
 10
3.052394
 20
-14.895788
 30
0.000000
  0
VERTEX
  8
CUT
 10
2.001859
 20
-20.050853
 30
0.000000
  0
VERTEX
  8
CUT
 10
-0.089774
 20
-24.696072
 30
0.000000
  0
SEQEND
  8
CUT
  0
POLYLINE
  8
CUT
 66
1
 70
1
  0
VERTEX
  8
CUT
 10
-0.652718
 20
-7.265130
 30
0.000000
  0
VERTEX
  8
CUT
 10
-5.833658
 20
-9.867852
 30
0.000000
  0
VERTEX
  8
CUT
 10
-9.884617
 20
-7.385631
 30
0.000000
  0
VERTEX
  8
CUT
 10
-7.584435
 20
-3.169144
 30
0.000000
  0
SEQEND
  8
CUT
  0
POLYLINE
  8
CUT
 66
1
 70
1
  0
VERTEX
  8
CUT
 10
53.699809
 20
-3.981882
 30
0.000000
  0
VERTEX
  8
CUT
 10
50.751322
 20
-7.075713
 30
0.000000
  0
VERTEX
  8
CUT
 10
14.155784
 20
-6.999068
 30
0.000000
  0
VERTEX
  8
CUT
 10
14.162277
 20
-3.899074
 30
0.000000
  0
SEQEND
  8
CUT
  0
POLYLINE
  8
CUT
 66
1
 70
1
  0
VERTEX
  8
CUT
 10
-24.915679
 20
-24.212224
 30
0.000000
  0
VERTEX
  8
CUT
 10
-32.834774
 20
-19.450755
 30
0.000000
  0
VERTEX
  8
CUT
 10
-26.974767
 20
-25.335359
 30
0.000000
  0
VERTEX
  8
CUT
 10
-29.060049
 20
-27.411924
 30
0.000000
  0
VERTEX
  8
CUT
 10
-47.128822
 20
-9.267305
 30
0.000000
  0
VERTEX
  8
CUT
 10
-11.107332
 20
-9.342748
 30
0.000000
  0
VERTEX
  8
CUT
 10
-6.161131
 20
-11.721064
 30
0.000000
  0
VERTEX
  8
CUT
 10
-5.637200
 20
-26.410640
 30
0.000000
  0
VERTEX
  8
CUT
 10
-3.727429
 20
-22.154059
 30
0.000000
  0
VERTEX
  8
CUT
 10
-1.888685
 20
-29.674594
 30
0.000000
  0
VERTEX
  8
CUT
 10
0.276907
 20
-36.071165
 30
0.000000
  0
VERTEX
  8
CUT
 10
3.163267
 20
-27.334356
 30
0.000000
  0
VERTEX
  8
CUT
 10
5.176985
 20
-23.513191
 30
0.000000
  0
VERTEX
  8
CUT
 10
6.400375
 20
-26.688733
 30
0.000000
  0
VERTEX
  8
CUT
 10
7.185477
 20
-11.749017
 30
0.000000
  0
VERTEX
  8
CUT
 10
11.998086
 20
-9.391140
 30
0.000000
  0
VERTEX
  8
CUT
 10
48.091332
 20
-9.466734
 30
0.000000
  0
VERTEX
  8
CUT
 10
24.577991
 20
-32.881788
 30
0.000000
  0
VERTEX
  8
CUT
 10
22.537229
 20
-30.832460
 30
0.000000
  0
VERTEX
  8
CUT
 10
34.150087
 20
-19.268144
 30
0.000000
  0
VERTEX
  8
CUT
 10
26.139304
 20
-24.023159
 30
0.000000
  0
VERTEX
  8
CUT
 10
26.148622
 20
-19.574289
 30
0.000000
  0
VERTEX
  8
CUT
 10
20.755654
 20
-24.944715
 30
0.000000
  0
VERTEX
  8
CUT
 10
19.100157
 20
-27.380961
 30
0.000000
  0
VERTEX
  8
CUT
 10
0.649443
 20
-48.976833
 30
0.000000
  0
VERTEX
  8
CUT
 10
-1.445183
 20
-46.479901
 30
0.000000
  0
VERTEX
  8
CUT
 10
0.659061
 20
-44.384452
 30
0.000000
  0
VERTEX
  8
CUT
 10
11.953752
 20
-30.559147
 30
0.000000
  0
VERTEX
  8
CUT
 10
1.318090
 20
-38.071280
 30
0.000000
  0
VERTEX
  8
CUT
 10
-11.151666
 20
-30.510755
 30
0.000000
  0
VERTEX
  8
CUT
 10
-2.582061
 20
-40.577206
 30
0.000000
  0
VERTEX
  8
CUT
 10
-4.658627
 20
-42.649264
 30
0.000000
  0
VERTEX
  8
CUT
 10
-17.531259
 20
-27.304240
 30
0.000000
  0
VERTEX
  8
CUT
 10
-23.373641
 20
-33.122201
 30
0.000000
  0
VERTEX
  8
CUT
 10
-25.531927
 20
-30.954855
 30
0.000000
  0
VERTEX
  8
CUT
 10
-23.364924
 20
-28.960355
 30
0.000000
  0
VERTEX
  8
CUT
 10
-19.248292
 20
-24.860930
 30
0.000000
  0
VERTEX
  8
CUT
 10
-24.044670
 20
-19.469165
 30
0.000000
  0
SEQEND
  8
CUT
  0
POLYLINE
  8
CUT
 66
1
 70
1
  0
VERTEX
  8
CUT
 10
11.206114
 20
-7.574155
 30
0.000000
  0
VERTEX
  8
CUT
 10
7.510072
 20
-9.895799
 30
0.000000
  0
VERTEX
  8
CUT
 10
2.028624
 20
-7.270743
 30
0.000000
  0
VERTEX
  8
CUT
 10
9.421609
 20
-3.204758
 30
0.000000
  0
SEQEND
  8
CUT
  0
POLYLINE
  8
CUT
 66
1
 70
1
  0
VERTEX
  8
CUT
 10
-97.685800
 20
27.029784
 30
0.000000
  0
VERTEX
  8
CUT
 10
-99.982953
 20
29.670444
 30
0.000000
  0
VERTEX
  8
CUT
 10
-4.173745
 20
114.341859
 30
0.000000
  0
VERTEX
  8
CUT
 10
-48.767259
 20
153.144475
 30
0.000000
  0
VERTEX
  8
CUT
 10
-83.832421
 20
153.159323
 30
0.000000
  0
VERTEX
  8
CUT
 10
-91.092324
 20
148.476247
 30
0.000000
  0
VERTEX
  8
CUT
 10
-174.278729
 20
4.394386
 30
0.000000
  0
VERTEX
  8
CUT
 10
-174.283683
 20
-4.435137
 30
0.000000
  0
VERTEX
  8
CUT
 10
-90.888928
 20
-148.865478
 30
0.000000
  0
VERTEX
  8
CUT
 10
-83.396445
 20
-153.153360
 30
0.000000
  0
VERTEX
  8
CUT
 10
83.428923
 20
-153.159323
 30
0.000000
  0
VERTEX
  8
CUT
 10
90.896928
 20
-148.868141
 30
0.000000
  0
VERTEX
  8
CUT
 10
174.283683
 20
-4.439269
 30
0.000000
  0
VERTEX
  8
CUT
 10
174.282075
 20
4.408370
 30
0.000000
  0
VERTEX
  8
CUT
 10
91.092785
 20
148.490038
 30
0.000000
  0
VERTEX
  8
CUT
 10
83.163994
 20
153.124889
 30
0.000000
  0
VERTEX
  8
CUT
 10
48.790089
 20
153.126117
 30
0.000000
  0
VERTEX
  8
CUT
 10
4.205578
 20
114.341325
 30
0.000000
  0
VERTEX
  8
CUT
 10
99.989941
 20
29.669914
 30
0.000000
  0
VERTEX
  8
CUT
 10
97.692451
 20
27.029547
 30
0.000000
  0
VERTEX
  8
CUT
 10
0.015684
 20
110.696468
 30
0.000000
  0
SEQEND
  8
CUT
  0
POLYLINE
  8
CUT
 66
1
 70
1
  0
VERTEX
  8
CUT
 10
-13.828619
 20
-112.867387
 30
0.000000
  0
VERTEX
  8
CUT
 10
-6.382839
 20
-120.312937
 30
0.000000
  0
VERTEX
  8
CUT
 10
6.389394
 20
-120.312937
 30
0.000000
  0
VERTEX
  8
CUT
 10
13.860289
 20
-112.868870
 30
0.000000
  0
VERTEX
  8
CUT
 10
41.768500
 20
-112.872635
 30
0.000000
  0
VERTEX
  8
CUT
 10
41.767029
 20
-134.733978
 30
0.000000
  0
VERTEX
  8
CUT
 10
-41.156416
 20
-134.722790
 30
0.000000
  0
VERTEX
  8
CUT
 10
-41.755778
 20
-112.867387
 30
0.000000
  0
SEQEND
  8
CUT
  0
ENDSEC
  0
EOF
