  0
SECTION
  2
HEADER
  9
$ACADVER
  1
AC1009
  9
$INSUNITS
 70
4
  9
$EXTMIN
 10
-173.165743
 20
-130.368709
 30
0.0
  9
$EXTMAX
 10
175.437177
 20
175.881291
 30
0.0
  0
ENDSEC
  0
SECTION
  2
TABLES
  0
TABLE
  2
LAYER
 70
2
  0
LAYER
  2
0
 70
0
 62
7
  6
CONTINUOUS
  0
LAYER
  2
CUT
 70
0
 62
1
  6
CONTINUOUS
  0
ENDTAB
  0
ENDSEC
  0
SECTION
  2
ENTITIES
  0
POLYLINE
  8
CUT
 66
1
 70
1
  0
VERTEX
  8
CUT
 10
2.744024
 20
-6.308484
 30
0.000000
  0
VERTEX
  8
CUT
 10
-64.514050
 20
-6.308519
 30
0.000000
  0
VERTEX
  8
CUT
 10
-64.514061
 20
0.840752
 30
0.000000
  0
VERTEX
  8
CUT
 10
2.744013
 20
0.840788
 30
0.000000
  0
SEQEND
  8
CUT
  0
POLYLINE
  8
CUT
 66
1
 70
1
  0
VERTEX
  8
CUT
 10
-31.492777
 20
-56.354249
 30
0.000000
  0
VERTEX
  8
CUT
 10
35.765402
 20
-56.354241
 30
0.000000
  0
VERTEX
  8
CUT
 10
35.765280
 20
-63.503589
 30
0.000000
  0
VERTEX
  8
CUT
 10
-31.492700
 20
-63.503482
 30
0.000000
  0
SEQEND
  8
CUT
  0
POLYLINE
  8
CUT
 66
1
 70
1
  0
VERTEX
  8
CUT
 10
1.481639
 20
-120.741639
 30
0.000000
  0
VERTEX
  8
CUT
 10
1.481799
 20
-113.592357
 30
0.000000
  0
VERTEX
  8
CUT
 10
49.283418
 20
-113.592195
 30
0.000000
  0
VERTEX
  8
CUT
 10
50.377065
 20
-120.741545
 30
0.000000
  0
SEQEND
  8
CUT
  0
POLYLINE
  8
CUT
 66
1
 70
1
  0
VERTEX
  8
CUT
 10
-41.465118
 20
-77.802214
 30
0.000000
  0
VERTEX
  8
CUT
 10
-106.653961
 20
-77.802219
 30
0.000000
  0
VERTEX
  8
CUT
 10
-106.654038
 20
-70.652986
 30
0.000000
  0
VERTEX
  8
CUT
 10
-41.465100
 20
-70.652838
 30
0.000000
  0
SEQEND
  8
CUT
  0
POLYLINE
  8
CUT
 66
1
 70
1
  0
VERTEX
  8
CUT
 10
-82.741763
 20
-6.308354
 30
0.000000
  0
VERTEX
  8
CUT
 10
-147.930767
 20
-6.308540
 30
0.000000
  0
VERTEX
  8
CUT
 10
-141.665119
 20
0.840872
 30
0.000000
  0
VERTEX
  8
CUT
 10
-82.741868
 20
0.840775
 30
0.000000
  0
SEQEND
  8
CUT
  0
POLYLINE
  8
CUT
 66
1
 70
1
  0
VERTEX
  8
CUT
 10
-74.486430
 20
-20.607318
 30
0.000000
  0
VERTEX
  8
CUT
 10
-139.675520
 20
-20.607200
 30
0.000000
  0
VERTEX
  8
CUT
 10
-139.675322
 20
-13.457985
 30
0.000000
  0
VERTEX
  8
CUT
 10
-74.486583
 20
-13.457952
 30
0.000000
  0
SEQEND
  8
CUT
  0
POLYLINE
  8
CUT
 66
1
 70
1
  0
VERTEX
  8
CUT
 10
-33.209756
 20
-92.101073
 30
0.000000
  0
VERTEX
  8
CUT
 10
-98.398704
 20
-92.101050
 30
0.000000
  0
VERTEX
  8
CUT
 10
-98.398648
 20
-84.951740
 30
0.000000
  0
VERTEX
  8
CUT
 10
-33.209843
 20
-84.951669
 30
0.000000
  0
SEQEND
  8
CUT
  0
POLYLINE
  8
CUT
 66
1
 70
1
  0
VERTEX
  8
CUT
 10
-6.773591
 20
-99.293602
 30
0.000000
  0
VERTEX
  8
CUT
 10
61.702713
 20
-99.508680
 30
0.000000
  0
VERTEX
  8
CUT
 10
52.052559
 20
-106.442901
 30
0.000000
  0
VERTEX
  8
CUT
 10
-6.773580
 20
-106.442874
 30
0.000000
  0
SEQEND
  8
CUT
  0
POLYLINE
  8
CUT
 66
1
 70
1
  0
VERTEX
  8
CUT
 10
27.510023
 20
-49.204758
 30
0.000000
  0
VERTEX
  8
CUT
 10
-39.748052
 20
-49.204794
 30
0.000000
  0
VERTEX
  8
CUT
 10
-39.748129
 20
-42.055560
 30
0.000000
  0
VERTEX
  8
CUT
 10
27.510012
 20
-42.055486
 30
0.000000
  0
SEQEND
  8
CUT
  0
POLYLINE
  8
CUT
 66
1
 70
1
  0
VERTEX
  8
CUT
 10
-5.511289
 20
7.990138
 30
0.000000
  0
VERTEX
  8
CUT
 10
-72.769440
 20
7.990235
 30
0.000000
  0
VERTEX
  8
CUT
 10
-72.769451
 20
15.139507
 30
0.000000
  0
VERTEX
  8
CUT
 10
-5.511244
 20
15.139619
 30
0.000000
  0
SEQEND
  8
CUT
  0
POLYLINE
  8
CUT
 66
1
 70
1
  0
VERTEX
  8
CUT
 10
10.999243
 20
-20.607249
 30
0.000000
  0
VERTEX
  8
CUT
 10
-56.258699
 20
-20.607208
 30
0.000000
  0
VERTEX
  8
CUT
 10
-56.258786
 20
-13.457804
 30
0.000000
  0
VERTEX
  8
CUT
 10
10.999403
 20
-13.457967
 30
0.000000
  0
SEQEND
  8
CUT
  0
POLYLINE
  8
CUT
 66
1
 70
1
  0
VERTEX
  8
CUT
 10
-23.237387
 20
-70.653003
 30
0.000000
  0
VERTEX
  8
CUT
 10
44.020687
 20
-70.652968
 30
0.000000
  0
VERTEX
  8
CUT
 10
44.020764
 20
-77.802201
 30
0.000000
  0
VERTEX
  8
CUT
 10
-23.237377
 20
-77.802275
 30
0.000000
  0
SEQEND
  8
CUT
  0
POLYLINE
  8
CUT
 66
1
 70
1
  0
VERTEX
  8
CUT
 10
-81.934835
 20
-120.741611
 30
0.000000
  0
VERTEX
  8
CUT
 10
-81.934851
 20
-113.592339
 30
0.000000
  0
VERTEX
  8
CUT
 10
-16.745914
 20
-113.592191
 30
0.000000
  0
VERTEX
  8
CUT
 10
-16.745897
 20
-120.741463
 30
0.000000
  0
SEQEND
  8
CUT
  0
POLYLINE
  8
CUT
 66
1
 70
1
  0
VERTEX
  8
CUT
 10
-114.909445
 20
-63.503607
 30
0.000000
  0
VERTEX
  8
CUT
 10
-114.909323
 20
-56.354259
 30
0.000000
  0
VERTEX
  8
CUT
 10
-49.720375
 20
-56.354282
 30
0.000000
  0
VERTEX
  8
CUT
 10
-50.107845
 20
-63.503592
 30
0.000000
  0
SEQEND
  8
CUT
  0
POLYLINE
  8
CUT
 66
1
 70
1
  0
VERTEX
  8
CUT
 10
-90.997038
 20
7.990202
 30
0.000000
  0
VERTEX
  8
CUT
 10
-138.527883
 20
7.990068
 30
0.000000
  0
VERTEX
  8
CUT
 10
-138.392599
 20
15.139743
 30
0.000000
  0
VERTEX
  8
CUT
 10
-90.997126
 20
15.139606
 30
0.000000
  0
SEQEND
  8
CUT
  0
POLYLINE
  8
CUT
 66
1
 70
1
  0
VERTEX
  8
CUT
 10
-57.975821
 20
-49.204837
 30
0.000000
  0
VERTEX
  8
CUT
 10
-123.164702
 20
-49.204776
 30
0.000000
  0
VERTEX
  8
CUT
 10
-123.164713
 20
-42.055504
 30
0.000000
  0
VERTEX
  8
CUT
 10
-57.975803
 20
-42.055461
 30
0.000000
  0
SEQEND
  8
CUT
  0
POLYLINE
  8
CUT
 66
1
 70
1
  0
VERTEX
  8
CUT
 10
-25.001189
 20
-99.293636
 30
0.000000
  0
VERTEX
  8
CUT
 10
-25.001187
 20
-106.442907
 30
0.000000
  0
VERTEX
  8
CUT
 10
-90.190201
 20
-106.442923
 30
0.000000
  0
VERTEX
  8
CUT
 10
-90.190203
 20
-99.293651
 30
0.000000
  0
SEQEND
  8
CUT
  0
POLYLINE
  8
CUT
 66
1
 70
1
  0
VERTEX
  8
CUT
 10
-14.982036
 20
-84.951692
 30
0.000000
  0
VERTEX
  8
CUT
 10
52.276077
 20
-84.951722
 30
0.000000
  0
VERTEX
  8
CUT
 10
52.276021
 20
-92.101032
 30
0.000000
  0
VERTEX
  8
CUT
 10
-14.982119
 20
-92.101106
 30
0.000000
  0
SEQEND
  8
CUT
  0
POLYLINE
  8
CUT
 66
1
 70
1
  0
VERTEX
  8
CUT
 10
19.254748
 20
-34.906202
 30
0.000000
  0
VERTEX
  8
CUT
 10
-48.003442
 20
-34.906039
 30
0.000000
  0
VERTEX
  8
CUT
 10
-48.003386
 20
-27.756729
 30
0.000000
  0
VERTEX
  8
CUT
 10
19.254755
 20
-27.756655
 30
0.000000
  0
SEQEND
  8
CUT
  0
POLYLINE
  8
CUT
 66
1
 70
1
  0
VERTEX
  8
CUT
 10
-66.231172
 20
-34.906149
 30
0.000000
  0
VERTEX
  8
CUT
 10
-131.420054
 20
-34.906088
 30
0.000000
  0
VERTEX
  8
CUT
 10
-131.420009
 20
-27.756607
 30
0.000000
  0
VERTEX
  8
CUT
 10
-66.231127
 20
-27.756668
 30
0.000000
  0
SEQEND
  8
CUT
  0
POLYLINE
  8
CUT
 66
1
 70
1
  0
VERTEX
  8
CUT
 10
23.798822
 20
39.665074
 30
0.000000
  0
VERTEX
  8
CUT
 10
57.427890
 20
-18.582110
 30
0.000000
  0
VERTEX
  8
CUT
 10
51.236444
 20
-22.156755
 30
0.000000
  0
VERTEX
  8
CUT
 10
17.607376
 20
36.090428
 30
0.000000
  0
SEQEND
  8
CUT
  0
POLYLINE
  8
CUT
 66
1
 70
1
  0
VERTEX
  8
CUT
 10
84.258126
 20
35.038016
 30
0.000000
  0
VERTEX
  8
CUT
 10
50.629030
 20
93.285304
 30
0.000000
  0
VERTEX
  8
CUT
 10
56.820608
 20
96.859873
 30
0.000000
  0
VERTEX
  8
CUT
 10
90.449505
 20
38.612700
 30
0.000000
  0
SEQEND
  8
CUT
  0
POLYLINE
  8
CUT
 66
1
 70
1
  0
VERTEX
  8
CUT
 10
123.532034
 20
95.788394
 30
0.000000
  0
VERTEX
  8
CUT
 10
117.340494
 20
92.213892
 30
0.000000
  0
VERTEX
  8
CUT
 10
93.439544
 20
133.611226
 30
0.000000
  0
VERTEX
  8
CUT
 10
99.084239
 20
138.133028
 30
0.000000
  0
SEQEND
  8
CUT
  0
POLYLINE
  8
CUT
 66
1
 70
1
  0
VERTEX
  8
CUT
 10
107.818779
 20
37.125699
 30
0.000000
  0
VERTEX
  8
CUT
 10
140.413205
 20
-19.329493
 30
0.000000
  0
VERTEX
  8
CUT
 10
134.221826
 20
-22.904176
 30
0.000000
  0
VERTEX
  8
CUT
 10
101.627229
 20
33.551026
 30
0.000000
  0
SEQEND
  8
CUT
  0
POLYLINE
  8
CUT
 66
1
 70
1
  0
VERTEX
  8
CUT
 10
66.541603
 20
-34.367855
 30
0.000000
  0
VERTEX
  8
CUT
 10
99.136266
 20
-90.823095
 30
0.000000
  0
VERTEX
  8
CUT
 10
89.811869
 20
-88.971590
 30
0.000000
  0
VERTEX
  8
CUT
 10
60.350328
 20
-37.942510
 30
0.000000
  0
SEQEND
  8
CUT
  0
POLYLINE
  8
CUT
 66
1
 70
1
  0
VERTEX
  8
CUT
 10
74.797202
 20
-20.069044
 30
0.000000
  0
VERTEX
  8
CUT
 10
107.391646
 20
-76.524511
 30
0.000000
  0
VERTEX
  8
CUT
 10
101.200144
 20
-80.098947
 30
0.000000
  0
VERTEX
  8
CUT
 10
68.605746
 20
-23.643860
 30
0.000000
  0
SEQEND
  8
CUT
  0
POLYLINE
  8
CUT
 66
1
 70
1
  0
VERTEX
  8
CUT
 10
116.074273
 20
51.424482
 30
0.000000
  0
VERTEX
  8
CUT
 10
148.668728
 20
-5.030815
 30
0.000000
  0
VERTEX
  8
CUT
 10
142.477216
 20
-8.605422
 30
0.000000
  0
VERTEX
  8
CUT
 10
109.882751
 20
47.849704
 30
0.000000
  0
SEQEND
  8
CUT
  0
POLYLINE
  8
CUT
 66
1
 70
1
  0
VERTEX
  8
CUT
 10
109.085104
 20
77.915137
 30
0.000000
  0
VERTEX
  8
CUT
 10
75.033215
 20
137.324894
 30
0.000000
  0
VERTEX
  8
CUT
 10
85.863503
 20
132.434726
 30
0.000000
  0
VERTEX
  8
CUT
 10
115.276549
 20
81.489782
 30
0.000000
  0
SEQEND
  8
CUT
  0
POLYLINE
  8
CUT
 66
1
 70
1
  0
VERTEX
  8
CUT
 10
48.565086
 20
82.561195
 30
0.000000
  0
VERTEX
  8
CUT
 10
82.194154
 20
24.314012
 30
0.000000
  0
VERTEX
  8
CUT
 10
76.002774
 20
20.739328
 30
0.000000
  0
VERTEX
  8
CUT
 10
42.373640
 20
78.986549
 30
0.000000
  0
SEQEND
  8
CUT
  0
POLYLINE
  8
CUT
 66
1
 70
1
  0
VERTEX
  8
CUT
 10
15.543509
 20
25.366452
 30
0.000000
  0
VERTEX
  8
CUT
 10
49.172500
 20
-32.880864
 30
0.000000
  0
VERTEX
  8
CUT
 10
42.981054
 20
-36.455509
 30
0.000000
  0
VERTEX
  8
CUT
 10
9.351854
 20
21.791750
 30
0.000000
  0
SEQEND
  8
CUT
  0
POLYLINE
  8
CUT
 66
1
 70
1
  0
VERTEX
  8
CUT
 10
32.054306
 20
53.963685
 30
0.000000
  0
VERTEX
  8
CUT
 10
65.683241
 20
-4.283421
 30
0.000000
  0
VERTEX
  8
CUT
 10
59.491719
 20
-7.858199
 30
0.000000
  0
VERTEX
  8
CUT
 10
25.862766
 20
50.389183
 30
0.000000
  0
SEQEND
  8
CUT
  0
POLYLINE
  8
CUT
 66
1
 70
1
  0
VERTEX
  8
CUT
 10
92.513516
 20
49.336771
 30
0.000000
  0
VERTEX
  8
CUT
 10
58.884448
 20
107.583954
 30
0.000000
  0
VERTEX
  8
CUT
 10
65.075827
 20
111.158638
 30
0.000000
  0
VERTEX
  8
CUT
 10
98.704961
 20
52.911416
 30
0.000000
  0
SEQEND
  8
CUT
  0
POLYLINE
  8
CUT
 66
1
 70
1
  0
VERTEX
  8
CUT
 10
165.240247
 20
23.547594
 30
0.000000
  0
VERTEX
  8
CUT
 10
159.048804
 20
19.972944
 30
0.000000
  0
VERTEX
  8
CUT
 10
126.454207
 20
76.428146
 30
0.000000
  0
VERTEX
  8
CUT
 10
132.645650
 20
80.002796
 30
0.000000
  0
SEQEND
  8
CUT
  0
POLYLINE
  8
CUT
 66
1
 70
1
  0
VERTEX
  8
CUT
 10
132.157986
 20
-33.628258
 30
0.000000
  0
VERTEX
  8
CUT
 10
125.966408
 20
-37.202826
 30
0.000000
  0
VERTEX
  8
CUT
 10
93.371954
 20
19.252470
 30
0.000000
  0
VERTEX
  8
CUT
 10
99.757173
 20
22.491567
 30
0.000000
  0
SEQEND
  8
CUT
  0
POLYLINE
  8
CUT
 66
1
 70
1
  0
VERTEX
  8
CUT
 10
58.286328
 20
-48.666411
 30
0.000000
  0
VERTEX
  8
CUT
 10
82.051866
 20
-89.829263
 30
0.000000
  0
VERTEX
  8
CUT
 10
75.792424
 20
-93.286940
 30
0.000000
  0
VERTEX
  8
CUT
 10
52.094806
 20
-52.241188
 30
0.000000
  0
SEQEND
  8
CUT
  0
POLYLINE
  8
CUT
 66
1
 70
1
  0
VERTEX
  8
CUT
 10
91.308076
 20
8.528322
 30
0.000000
  0
VERTEX
  8
CUT
 10
123.902464
 20
-47.926936
 30
0.000000
  0
VERTEX
  8
CUT
 10
117.711018
 20
-51.501581
 30
0.000000
  0
VERTEX
  8
CUT
 10
85.116526
 20
4.953649
 30
0.000000
  0
SEQEND
  8
CUT
  0
POLYLINE
  8
CUT
 66
1
 70
1
  0
VERTEX
  8
CUT
 10
118.198932
 20
62.129591
 30
0.000000
  0
VERTEX
  8
CUT
 10
124.390382
 20
65.704228
 30
0.000000
  0
VERTEX
  8
CUT
 10
156.984902
 20
9.248893
 30
0.000000
  0
VERTEX
  8
CUT
 10
150.793452
 20
5.674256
 30
0.000000
  0
SEQEND
  8
CUT
  0
POLYLINE
  8
CUT
 66
1
 70
1
  0
VERTEX
  8
CUT
 10
100.768867
 20
63.635459
 30
0.000000
  0
VERTEX
  8
CUT
 10
67.139838
 20
121.882709
 30
0.000000
  0
VERTEX
  8
CUT
 10
73.331350
 20
125.457316
 30
0.000000
  0
VERTEX
  8
CUT
 10
106.960484
 20
67.210094
 30
0.000000
  0
SEQEND
  8
CUT
  0
POLYLINE
  8
CUT
 66
1
 70
1
  0
VERTEX
  8
CUT
 10
40.309811
 20
68.262639
 30
0.000000
  0
VERTEX
  8
CUT
 10
73.938764
 20
10.015257
 30
0.000000
  0
VERTEX
  8
CUT
 10
67.747252
 20
6.440650
 30
0.000000
  0
VERTEX
  8
CUT
 10
34.118118
 20
64.687871
 30
0.000000
  0
SEQEND
  8
CUT
  0
POLYLINE
  8
CUT
 66
1
 70
1
  0
VERTEX
  8
CUT
 10
83.052724
 20
-5.770366
 30
0.000000
  0
VERTEX
  8
CUT
 10
115.647112
 20
-62.225624
 30
0.000000
  0
VERTEX
  8
CUT
 10
109.455457
 20
-65.800325
 30
0.000000
  0
VERTEX
  8
CUT
 10
76.861070
 20
-9.345067
 30
0.000000
  0
SEQEND
  8
CUT
  0
POLYLINE
  8
CUT
 66
1
 70
1
  0
VERTEX
  8
CUT
 10
-144.144804
 20
8.926041
 30
0.000000
  0
VERTEX
  8
CUT
 10
-158.103679
 20
8.926041
 30
0.000000
  0
VERTEX
  8
CUT
 10
-158.103756
 20
36.586503
 30
0.000000
  0
VERTEX
  8
CUT
 10
-144.144957
 20
36.586541
 30
0.000000
  0
SEQEND
  8
CUT
  0
POLYLINE
  8
CUT
 66
1
 70
1
  0
VERTEX
  8
CUT
 10
61.798611
 20
-109.975283
 30
0.000000
  0
VERTEX
  8
CUT
 10
85.753243
 20
-96.145041
 30
0.000000
  0
VERTEX
  8
CUT
 10
92.732604
 20
-108.233724
 30
0.000000
  0
VERTEX
  8
CUT
 10
68.778035
 20
-122.063974
 30
0.000000
  0
SEQEND
  8
CUT
  0
POLYLINE
  8
CUT
 66
1
 70
1
  0
VERTEX
  8
CUT
 10
85.753243
 20
141.657854
 30
0.000000
  0
VERTEX
  8
CUT
 10
61.798494
 20
155.488119
 30
0.000000
  0
VERTEX
  8
CUT
 10
68.777882
 20
167.576787
 30
0.000000
  0
VERTEX
  8
CUT
 10
92.732604
 20
153.746537
 30
0.000000
  0
SEQEND
  8
CUT
  0
POLYLINE
  8
CUT
 66
1
 70
1
  0
VERTEX
  8
CUT
 10
-89.943531
 20
171.249796
 30
0.000000
  0
VERTEX
  8
CUT
 10
-173.165743
 20
27.107491
 30
0.000000
  0
VERTEX
  8
CUT
 10
-173.002971
 20
18.123265
 30
0.000000
  0
VERTEX
  8
CUT
 10
-89.781984
 20
-126.019423
 30
0.000000
  0
VERTEX
  8
CUT
 10
-81.921312
 20
-130.368709
 30
0.000000
  0
VERTEX
  8
CUT
 10
84.192822
 20
-130.368709
 30
0.000000
  0
VERTEX
  8
CUT
 10
92.051274
 20
-126.022944
 30
0.000000
  0
VERTEX
  8
CUT
 10
175.428188
 20
18.013672
 30
0.000000
  0
VERTEX
  8
CUT
 10
175.437177
 20
27.107415
 30
0.000000
  0
VERTEX
  8
CUT
 10
92.216955
 20
171.248648
 30
0.000000
  0
VERTEX
  8
CUT
 10
84.529544
 20
175.881138
 30
0.000000
  0
VERTEX
  8
CUT
 10
-82.253363
 20
175.881291
 30
0.000000
  0
SEQEND
  8
CUT
  0
POLYLINE
  8
CUT
 66
1
 70
1
  0
VERTEX
  8
CUT
 10
-16.821552
 20
108.945389
 30
0.000000
  0
VERTEX
  8
CUT
 10
15.772942
 20
165.400586
 30
0.000000
  0
VERTEX
  8
CUT
 10
21.964551
 20
161.825807
 30
0.000000
  0
VERTEX
  8
CUT
 10
-10.629943
 20
105.370610
 30
0.000000
  0
SEQEND
  8
CUT
  0
POLYLINE
  8
CUT
 66
1
 70
1
  0
VERTEX
  8
CUT
 10
-59.564558
 20
34.912438
 30
0.000000
  0
VERTEX
  8
CUT
 10
-25.935322
 20
93.159657
 30
0.000000
  0
VERTEX
  8
CUT
 10
-19.743866
 20
89.584953
 30
0.000000
  0
VERTEX
  8
CUT
 10
-53.372872
 20
31.337658
 30
0.000000
  0
SEQEND
  8
CUT
  0
POLYLINE
  8
CUT
 66
1
 70
1
  0
VERTEX
  8
CUT
 10
-85.786832
 20
89.585107
 30
0.000000
  0
VERTEX
  8
CUT
 10
-119.415914
 20
31.337888
 30
0.000000
  0
VERTEX
  8
CUT
 10
-125.607371
 20
34.912591
 30
0.000000
  0
VERTEX
  8
CUT
 10
-91.978364
 20
93.159886
 30
0.000000
  0
SEQEND
  8
CUT
  0
POLYLINE
  8
CUT
 66
1
 70
1
  0
VERTEX
  8
CUT
 10
-93.197743
 20
105.432920
 30
0.000000
  0
VERTEX
  8
CUT
 10
-99.389195
 20
109.007554
 30
0.000000
  0
VERTEX
  8
CUT
 10
-66.794701
 20
165.462904
 30
0.000000
  0
VERTEX
  8
CUT
 10
-60.603249
 20
161.888270
 30
0.000000
  0
SEQEND
  8
CUT
  0
POLYLINE
  8
CUT
 66
1
 70
1
  0
VERTEX
  8
CUT
 10
-33.332255
 20
108.945389
 30
0.000000
  0
VERTEX
  8
CUT
 10
-0.737761
 20
165.400586
 30
0.000000
  0
VERTEX
  8
CUT
 10
5.453695
 20
161.825960
 30
0.000000
  0
VERTEX
  8
CUT
 10
-27.140722
 20
105.370686
 30
0.000000
  0
SEQEND
  8
CUT
  0
POLYLINE
  8
CUT
 66
1
 70
1
  0
VERTEX
  8
CUT
 10
32.710711
 20
108.945083
 30
0.000000
  0
VERTEX
  8
CUT
 10
56.476017
 20
150.108069
 30
0.000000
  0
VERTEX
  8
CUT
 10
62.600175
 20
146.416072
 30
0.000000
  0
VERTEX
  8
CUT
 10
38.902320
 20
105.370457
 30
0.000000
  0
SEQEND
  8
CUT
  0
POLYLINE
  8
CUT
 66
1
 70
1
  0
VERTEX
  8
CUT
 10
-17.248541
 20
165.400739
 30
0.000000
  0
VERTEX
  8
CUT
 10
-11.057085
 20
161.825960
 30
0.000000
  0
VERTEX
  8
CUT
 10
-43.651579
 20
105.370686
 30
0.000000
  0
VERTEX
  8
CUT
 10
-49.649328
 20
109.280899
 30
0.000000
  0
SEQEND
  8
CUT
  0
POLYLINE
  8
CUT
 66
1
 70
1
  0
VERTEX
  8
CUT
 10
-83.305412
 20
165.462891
 30
0.000000
  0
VERTEX
  8
CUT
 10
-77.113953
 20
161.888270
 30
0.000000
  0
VERTEX
  8
CUT
 10
-109.708293
 20
105.432920
 30
0.000000
  0
VERTEX
  8
CUT
 10
-115.899752
 20
109.007541
 30
0.000000
  0
SEQEND
  8
CUT
  0
POLYLINE
  8
CUT
 66
1
 70
1
  0
VERTEX
  8
CUT
 10
-69.276129
 20
89.585107
 30
0.000000
  0
VERTEX
  8
CUT
 10
-102.905135
 20
31.337888
 30
0.000000
  0
VERTEX
  8
CUT
 10
-109.096591
 20
34.912438
 30
0.000000
  0
VERTEX
  8
CUT
 10
-75.467585
 20
93.159733
 30
0.000000
  0
SEQEND
  8
CUT
  0
POLYLINE
  8
CUT
 66
1
 70
1
  0
VERTEX
  8
CUT
 10
-43.053549
 20
34.912438
 30
0.000000
  0
VERTEX
  8
CUT
 10
-9.424543
 20
93.159503
 30
0.000000
  0
VERTEX
  8
CUT
 10
-3.232933
 20
89.584877
 30
0.000000
  0
VERTEX
  8
CUT
 10
-36.862169
 20
31.337658
 30
0.000000
  0
SEQEND
  8
CUT
  0
POLYLINE
  8
CUT
 66
1
 70
1
  0
VERTEX
  8
CUT
 10
29.788396
 20
89.584877
 30
0.000000
  0
VERTEX
  8
CUT
 10
-3.840610
 20
31.337505
 30
0.000000
  0
VERTEX
  8
CUT
 10
-10.032219
 20
34.912285
 30
0.000000
  0
VERTEX
  8
CUT
 10
23.596940
 20
93.159503
 30
0.000000
  0
SEQEND
  8
CUT
  0
POLYLINE
  8
CUT
 66
1
 70
1
  0
VERTEX
  8
CUT
 10
-76.075108
 20
34.912438
 30
0.000000
  0
VERTEX
  8
CUT
 10
-42.446102
 20
93.159657
 30
0.000000
  0
VERTEX
  8
CUT
 10
-36.254646
 20
89.585107
 30
0.000000
  0
VERTEX
  8
CUT
 10
-69.883652
 20
31.337811
 30
0.000000
  0
SEQEND
  8
CUT
  0
POLYLINE
  8
CUT
 66
1
 70
1
  0
VERTEX
  8
CUT
 10
-102.311513
 20
89.647340
 30
0.000000
  0
VERTEX
  8
CUT
 10
-136.735928
 20
30.452660
 30
0.000000
  0
VERTEX
  8
CUT
 10
-137.916062
 20
42.277049
 30
0.000000
  0
VERTEX
  8
CUT
 10
-108.502970
 20
93.221966
 30
0.000000
  0
SEQEND
  8
CUT
  0
POLYLINE
  8
CUT
 66
1
 70
1
  0
VERTEX
  8
CUT
 10
-82.864518
 20
108.945466
 30
0.000000
  0
VERTEX
  8
CUT
 10
-50.270024
 20
165.400739
 30
0.000000
  0
VERTEX
  8
CUT
 10
-44.078568
 20
161.826036
 30
0.000000
  0
VERTEX
  8
CUT
 10
-76.672908
 20
105.370839
 30
0.000000
  0
SEQEND
  8
CUT
  0
POLYLINE
  8
CUT
 66
1
 70
1
  0
VERTEX
  8
CUT
 10
-0.310772
 20
108.945236
 30
0.000000
  0
VERTEX
  8
CUT
 10
32.283875
 20
165.400586
 30
0.000000
  0
VERTEX
  8
CUT
 10
38.475178
 20
161.825807
 30
0.000000
  0
VERTEX
  8
CUT
 10
5.880837
 20
105.370686
 30
0.000000
  0
SEQEND
  8
CUT
  0
POLYLINE
  8
CUT
 66
1
 70
1
  0
VERTEX
  8
CUT
 10
16.200161
 20
108.945083
 30
0.000000
  0
VERTEX
  8
CUT
 10
48.794501
 20
165.400510
 30
0.000000
  0
VERTEX
  8
CUT
 10
51.853250
 20
156.399593
 30
0.000000
  0
VERTEX
  8
CUT
 10
22.391540
 20
105.370610
 30
0.000000
  0
SEQEND
  8
CUT
  0
POLYLINE
  8
CUT
 66
1
 70
1
  0
VERTEX
  8
CUT
 10
-66.353661
 20
108.945389
 30
0.000000
  0
VERTEX
  8
CUT
 10
-33.759244
 20
165.400586
 30
0.000000
  0
VERTEX
  8
CUT
 10
-27.567788
 20
161.826036
 30
0.000000
  0
VERTEX
  8
CUT
 10
-60.162129
 20
105.370686
 30
0.000000
  0
SEQEND
  8
CUT
  0
POLYLINE
  8
CUT
 66
1
 70
1
  0
VERTEX
  8
CUT
 10
-125.013673
 20
93.222120
 30
0.000000
  0
VERTEX
  8
CUT
 10
-118.822293
 20
89.647340
 30
0.000000
  0
VERTEX
  8
CUT
 10
-142.722962
 20
48.249843
 30
0.000000
  0
VERTEX
  8
CUT
 10
-149.461304
 20
50.877391
 30
0.000000
  0
SEQEND
  8
CUT
  0
POLYLINE
  8
CUT
 66
1
 70
1
  0
VERTEX
  8
CUT
 10
-52.765349
 20
89.585107
 30
0.000000
  0
VERTEX
  8
CUT
 10
-86.394432
 20
31.337811
 30
0.000000
  0
VERTEX
  8
CUT
 10
-92.585888
 20
34.912591
 30
0.000000
  0
VERTEX
  8
CUT
 10
-58.956805
 20
93.159657
 30
0.000000
  0
SEQEND
  8
CUT
  0
POLYLINE
  8
CUT
 66
1
 70
1
  0
VERTEX
  8
CUT
 10
-26.542846
 20
34.912285
 30
0.000000
  0
VERTEX
  8
CUT
 10
7.086161
 20
93.159503
 30
0.000000
  0
VERTEX
  8
CUT
 10
13.277617
 20
89.584877
 30
0.000000
  0
VERTEX
  8
CUT
 10
-20.351389
 20
31.337658
 30
0.000000
  0
SEQEND
  8
CUT
  0
ENDSEC
  0
EOF
