<svg xmlns="http://www.w3.org/2000/svg" viewBox="0 0 120 72" fill="none" role="img" aria-label="Northern Magical Place">
  <g fill="#F3F1EC">
    <path d="M6 54 L34 16 L48 36 L60 10 L72 36 L86 16 L114 54 H6 Z"/>
    <rect x="6" y="54" width="108" height="3.2" rx="0.5"/>
    <path d="M60 26 C55.2 33.2 52.8 38.2 52.8 43.2 C52.8 48.2 55.8 52 60 52 C64.2 52 67.2 48.2 67.2 43.2 C67.2 38.2 64.8 33.2 60 26 Z"/>
    <path d="M44 57.5 L58.2 52.6 L60.4 55.8 L46.2 60.7 Z"/>
    <path d="M76 57.5 L61.8 52.6 L59.6 55.8 L73.8 60.7 Z"/>
  </g>
  <g fill="#0C0D0C" opacity="0.5">
    <path d="M34 16 L41 28 L36.5 30.5 L43 40 L48 36 Z"/>
    <path d="M60 10 L67 24 L62.5 26.5 L69 35 L72 36 L64 27 L60 20 Z"/>
    <path d="M86 16 L79 28 L83.5 30.5 L77 40 L72 36 Z"/>
    <path d="M60 35 C57.6 38.4 56.6 40.8 56.6 43.1 C56.6 45.5 58 47.2 60 47.2 C62 47.2 63.4 45.5 63.4 43.1 C63.4 40.8 62.4 38.4 60 35 Z"/>
  </g>
</svg>
